<?xml version="1.0" encoding="utf-8" ?><svg xmlns="http://www.w3.org/2000/svg" xmlns:xlink="http://www.w3.org/1999/xlink" width="1253" height="301" viewBox="0 0 1253 301"><defs><linearGradient id="gradient_0" gradientUnits="userSpaceOnUse" x1="271.90927" y1="129.08476" x2="52.899044" y2="136.06386"><stop offset="0" stop-color="#007CE9"/><stop offset="1" stop-color="#7B6AF0"/></linearGradient></defs><path fill="url(#gradient_0)" d="M46.6251 33.4832C53.4588 23.6388 68.0569 16.1987 79.6537 14.1036C88.7861 12.4536 98.1378 12.7238 107.381 12.5267C123.986 12.2298 140.593 12.0713 157.201 12.0513L207.549 12.0598C217.17 12.078 227.253 11.4444 236.802 12.5944C242.739 13.3095 247.513 14.7504 252.461 18.205C260.749 23.9917 268.549 33.6575 270.335 43.7245C271.994 53.0675 271.108 63.5746 271.094 73.0597L271.01 125.69L271.087 174.621C271.1 183.788 271.75 193.498 270.564 202.593C269.52 210.604 266.019 220.256 261.417 226.888C254.032 237.534 241.733 245.422 229.009 247.642C218.453 249.484 206.594 248.16 195.873 248.01C175.479 247.726 155.052 247.924 134.655 247.913C120.303 247.906 92.5124 246.153 79.8057 249.986C73.6936 251.83 68.7844 256.044 64.3476 260.464C61.6969 264.286 38.0951 287.29 34.2413 288.257C33.9936 288.32 33.2824 287.789 33.0314 287.637C32.0055 285.415 31.924 282.685 31.8614 280.265C31.5848 269.584 31.9679 258.804 31.965 248.113L31.9338 171.779L31.8104 105.282C31.741 96.0066 30.9598 86.7889 31.1636 77.4932C31.4935 62.4512 35.2969 44.3318 46.6251 33.4832Z"/><path fill="#8269F1" d="M46.6251 33.4832C47.6909 33.1687 48.7344 32.8293 49.7757 32.4411C52.96 35.5015 58.1149 72.1701 58.2363 78.4718C58.5991 97.2999 61.1932 116.154 61.5219 134.955C61.6896 144.548 59.3259 154.043 59.7842 163.556L63.3993 233.871C64.0023 246.592 67.9949 245.828 64.3476 260.464C61.6969 264.286 38.0951 287.29 34.2413 288.257C33.9936 288.32 33.2824 287.789 33.0314 287.637C32.0055 285.415 31.924 282.685 31.8614 280.265C31.5848 269.584 31.9679 258.804 31.965 248.113L31.9338 171.779L31.8104 105.282C31.741 96.0066 30.9598 86.7889 31.1636 77.4932C31.4935 62.4512 35.2969 44.3318 46.6251 33.4832Z"/><path fill="#FBFAF8" d="M140.24 31.425C143.076 30.9811 146.347 31.079 149.224 31.07C169.225 31.1059 188.419 38.96 202.707 52.9549C214.322 64.4869 222.141 80.0735 222.978 96.5462C223.284 102.567 222.793 109.354 224.589 115.146C227.201 123.569 235.776 137.027 235.726 145.264C235.714 147.119 234.993 148.781 233.65 150.061C230.275 153.278 224.344 152.438 220.087 152.34C220.099 153.052 220.1 153.765 220.091 154.477C219.978 163.443 221.006 177.323 214.064 183.995C206.921 190.86 183.779 188.375 173.77 188.155C173.552 157.735 174.599 127.279 175.091 96.8652C179.223 94.2708 182.999 91.8461 185.468 87.4575C187.401 84.0222 187.901 80.0875 186.808 76.2906C185.572 72.0003 182.43 68.3434 178.53 66.2246C174.508 64.0574 169.781 63.6047 165.421 64.9688C161.627 66.1382 158.487 68.4058 156.642 71.974C154.58 75.9628 154.169 81.3865 155.55 85.6513C157.355 91.2273 162.033 94.1176 166.93 96.6596C168.176 126.871 167.413 157.331 167.008 187.553C168.015 189.068 169.17 190.712 169.64 192.489C171.717 200.338 170.46 217.297 169.923 225.763C163.759 219.712 158.789 213.843 151.561 208.941L151.497 161.971L151.584 152.535C155.722 149.532 159.569 146.39 160.578 141.059C161.22 137.662 160.442 134.352 158.489 131.517C156.435 128.535 153.051 126.532 149.518 125.878C146.062 125.238 142.349 125.951 139.466 127.986C135.121 131.054 134.058 135.316 133.221 140.244C134.932 146.497 137.32 149.056 142.668 152.386L142.646 204.111C137.169 201.823 131.717 199.67 126.089 197.768C125.346 168.936 125.723 139.772 126.024 110.929C129.426 108.674 132.375 107.034 134.733 103.534C137.103 100.016 138.079 96.0412 137.229 91.8536C136.348 87.5169 133.577 83.682 129.903 81.2609C126.169 78.7523 121.576 77.8674 117.178 78.8091C113.318 79.6291 109.893 81.6926 107.753 85.0551C105.266 88.9597 104.356 94.5004 105.391 99.0051C106.769 104.999 111.664 108.177 116.542 111.205C117.418 121.773 116.84 132.832 116.847 143.452C116.952 160.905 116.896 178.359 116.679 195.811C110.745 195.581 104.84 195.737 98.907 195.898C101.5 180.145 103.813 164.314 96.8878 149.264C94.0647 143.129 90.4638 137.375 87.7051 131.194C84.5233 124.064 82.1611 116.604 81.222 108.838C79.0812 89.8586 84.437 70.7936 96.1482 55.7054C107.291 41.5362 122.453 33.5384 140.24 31.425Z"/><path fill="#FBFAF8" d="M168.228 73.6965C170.523 72.6886 173.183 73.0011 175.181 74.5133C177.179 76.0255 178.203 78.5005 177.856 80.9823C177.509 83.464 175.847 85.5639 173.511 86.4706C170.006 87.8308 166.057 86.1413 164.62 82.6674C163.184 79.1935 164.787 75.2085 168.228 73.6965Z"/><path fill="#FBFAF8" d="M118.693 88.4356C120.949 87.5707 123.497 87.989 125.358 89.5299C127.219 91.0709 128.106 93.4953 127.677 95.8733C127.248 98.2513 125.571 100.214 123.289 101.008C119.836 102.209 116.057 100.418 114.802 96.9839C113.547 93.55 115.279 89.7442 118.693 88.4356Z"/><path fill="#FBFAF8" d="M145.371 134.244C147.133 133.61 149.1 133.976 150.515 135.202C151.93 136.428 152.573 138.323 152.196 140.157C151.819 141.991 150.48 143.478 148.696 144.046C146.008 144.902 143.13 143.448 142.224 140.777C141.317 138.106 142.717 135.201 145.371 134.244Z"/><path fill="#062540" d="M470.403 111.029C495.162 110.423 515.77 129.909 516.549 154.661C517.328 179.414 497.985 200.157 473.238 201.108C448.244 202.069 427.25 182.494 426.463 157.495C425.676 132.497 445.399 111.64 470.403 111.029ZM476.61 181.669C482.553 179.666 486.72 176.444 489.598 170.72C493.384 163.189 493.813 152.722 491.149 144.751C489.299 139.219 485.7 134.362 480.393 131.749C475.881 129.527 471.264 129.563 466.382 129.851C460.218 132.001 455.648 135.589 452.775 141.558C449.064 149.268 448.782 159.959 451.685 168C453.561 173.197 457.195 177.832 462.286 180.176C466.942 182.321 471.619 182.267 476.61 181.669Z"/><path fill="#062540" d="M366.476 79.7594L366.683 79.7359C380.55 78.1907 395.604 81.8166 406.562 90.5752C416.181 98.2636 421.867 109.703 423.223 121.867C415.878 121.7 408.176 121.453 400.865 122.144C398.73 116.548 396.179 111.297 391.526 107.318C385.167 101.88 376.021 100.055 367.838 100.71C359.707 101.361 352.176 104.899 346.863 111.175C338.646 120.879 336.887 135.217 337.93 147.471C338.785 157.521 342.651 167.753 350.571 174.349C357.496 180.116 366.926 182.371 375.803 181.528C384.01 180.748 390.633 177.416 395.913 171.04C397.802 168.073 398.639 164.776 399.452 161.404L423.169 161.608C420.911 169.482 418.622 177.029 413.481 183.582C405.63 193.59 393.494 199.208 381.057 200.711C364.812 202.675 347.496 199.84 334.411 189.52C322.681 180.269 315.912 166.325 314.211 151.638C312.104 133.446 316.082 114.604 327.597 100.083C337.82 87.193 350.431 81.5878 366.476 79.7594Z"/><defs><linearGradient id="gradient_1" gradientUnits="userSpaceOnUse" x1="1033.161" y1="143.10039" x2="912.45337" y2="162.0507"><stop offset="0" stop-color="#37BCC6"/><stop offset="1" stop-color="#34A6D1"/></linearGradient></defs><path fill="url(#gradient_1)" d="M1010.5 112.204C1017.27 112.378 1024.05 112.392 1030.82 112.246C1027.32 122.727 1023.9 133.233 1020.55 143.762C1014.46 162.352 1008.48 180.974 1002.6 199.628C996.161 199.11 989.39 199.457 982.913 199.441C977.709 179.938 971.682 160.679 966.599 141.146C963.299 160.947 954.472 179.807 950.417 199.435L930.979 199.383L914.655 147.058C910.992 135.515 906.872 124.029 903.666 112.354C909.434 112.38 915.203 112.34 920.97 112.236L923.324 112.337C925.873 113.855 938.922 164.072 941.499 171.889C942.887 165.376 945.082 158.91 946.933 152.503C950.891 139.166 954.692 125.783 958.336 112.357C964.191 112.407 970.073 112.565 975.919 112.183C980.938 132.236 987.804 151.844 993.04 171.856C998.261 151.855 1004.73 132.065 1010.5 112.204Z"/><path fill="#062540" d="M715.79 111.012C726.478 111.105 736.846 114.102 744.557 121.824C755.584 132.869 756.192 147.449 756.183 162.108C736.41 161.02 716.128 161.937 696.301 161.984C696.719 164.17 697.044 166.42 697.688 168.552C699.305 173.903 703.199 178.847 708.172 181.442C712.846 183.886 718.294 184.393 723.338 182.854C728.622 181.187 731.834 177.72 734.311 172.951C741.267 172.711 748.308 173 755.271 173.089C755.279 173.176 755.29 173.262 755.296 173.349C755.607 177.948 750.672 185.421 747.722 188.694C740.519 196.684 730.876 200.571 720.255 201.098C708.648 201.673 696.884 198.488 688.167 190.571C679.233 182.456 675.157 171.256 674.605 159.391C673.991 146.212 677.222 133.192 686.305 123.287C694.387 114.472 704.155 111.514 715.79 111.012ZM696.633 146.945L718.731 146.842L735.224 146.854C734.762 141.083 733.121 135.256 728.551 131.344C724.188 127.608 718.783 126.835 713.232 127.302L713.032 127.32C706.938 129.413 702.28 131.794 699.317 137.895C697.944 140.721 697.227 143.871 696.633 146.945Z"/><path fill="#39B9C6" d="M1182.47 111.495C1185.07 110.907 1188.59 111.058 1191.27 111.122C1201.83 111.377 1211.11 115.117 1218.44 122.819C1228.81 133.719 1229.51 147.889 1229.14 162.119C1209.66 160.925 1189.35 161.699 1169.83 162.052C1170.07 164.13 1170.41 166.258 1170.91 168.291C1172.18 173.377 1175.58 178.295 1180.09 181.011C1184.63 183.745 1190.32 184.251 1195.4 182.988C1201.8 181.399 1205.24 177.451 1208.48 172.079C1211.9 172.421 1215.45 172.374 1218.89 172.483L1227.97 172.562C1226.6 177.422 1224.72 181.961 1221.77 186.092C1216.51 193.515 1208.52 198.543 1199.55 200.07C1187.95 201.987 1175.03 200.442 1165.3 193.466C1156.25 186.982 1150.53 176.944 1148.73 166.031C1146.6 153.134 1148.67 137.679 1156.43 126.88C1162.74 118.105 1171.96 113.23 1182.47 111.495ZM1169.79 147.341C1176.47 146.768 1183.22 146.875 1189.92 146.832C1196.2 146.831 1202.5 146.917 1208.78 146.814C1207.4 140.252 1205.7 133.826 1199.69 129.943C1196.34 127.782 1192.88 127.215 1188.99 126.897C1183.35 127.679 1178.57 129.362 1175.01 134.062C1172.02 138.014 1170.91 142.621 1169.79 147.341Z"/><path fill="#127DEF" d="M638.258 225.959C642.124 225.825 646.014 225.929 649.882 225.956C649.52 239.098 649.73 252.316 649.648 265.467C654.855 252.292 659.646 238.826 665.457 225.91L677.691 225.954C683.378 238.504 688.074 251.712 693.104 264.549L693.101 225.905C696.338 225.823 699.588 225.981 702.825 226.072C708.9 232.762 713.859 241.697 718.923 249.24C718.252 241.579 718.475 233.687 718.374 225.991C722.221 225.829 726.116 225.936 729.968 225.925C729.766 238.946 729.911 251.996 729.892 265.021L740.224 238.382L745.34 225.94C749.395 225.81 753.49 225.933 757.549 225.94C763.837 238.646 768.658 252.745 773.683 266.027L761.484 266.105L758.944 258.902C753.843 259.047 748.716 258.947 743.611 258.949C742.939 261.336 742.061 263.698 741.282 266.054L720.078 266.09C714.4 258.625 708.914 250.683 704.122 242.621C703.925 250.423 704.099 258.272 704.096 266.08L681.396 266.098L679.067 258.896C673.918 259.051 668.752 258.951 663.601 258.93L661.39 266.052L638.481 266.098C638.368 258.559 638.457 251.018 638.748 243.484L631.851 257.813C629.244 257.809 626.629 257.9 624.022 257.946C621.507 253.258 619.306 248.424 617.076 243.598C616.897 251.082 617.053 258.585 617.106 266.072L606.188 266.141L606.094 225.919C609.966 225.872 613.846 225.956 617.719 225.992C621.526 232.494 625.065 239.584 627.947 246.546C631.198 239.608 634.4 232.584 638.258 225.959ZM752.399 250.147L754.686 249.958C756.02 246.738 752.809 241.131 751.51 237.994L751.393 237.712C750.042 241.059 747.406 245.476 747.738 249.1L748.414 250.027C749.757 250.168 751.05 250.19 752.399 250.147ZM671.905 250.176L674.538 249.959C675.568 247.532 674.558 245.455 673.616 243.132C672.896 241.355 672.224 239.431 671.313 237.746C670.003 241.134 667.442 245.535 667.658 249.156L668.267 250.029C669.478 250.094 670.691 250.177 671.905 250.176Z"/><path fill="#062540" d="M566.311 111.454C568.293 111.26 570.297 111.064 572.289 111.041C580.471 110.944 588.242 113.047 594.199 118.941C598.245 122.943 600.983 128.121 602.391 133.61C605.058 143.999 604.003 155.826 603.967 166.503L603.959 199.354L582.946 199.393C583.488 190.688 583.135 181.779 583.16 173.042C583.185 164.469 583.873 155.087 582.6 146.604C582.047 142.926 581.005 139.301 578.872 136.208C576.73 133.104 573.67 130.884 569.917 130.233C563.681 129.152 558.038 130.828 552.986 134.43C550.091 137.369 548.538 141.251 547.724 145.237C546.255 152.421 546.873 160.205 546.903 167.517L547.073 199.314C539.697 199.083 532.228 199.358 524.843 199.388C525.935 170.49 524.928 141.152 524.889 112.213C531.764 112.633 538.966 112.534 545.824 111.948C545.778 116.934 545.704 121.919 545.602 126.904C546.233 125.827 546.89 124.766 547.574 123.722C552.304 116.555 558.061 113.131 566.311 111.454Z"/><path fill="#39B9C6" d="M1100.74 110.927C1108.77 110.766 1116.99 111.328 1124.33 114.879C1131.08 118.14 1135.91 123.854 1138.31 130.921C1139.01 132.994 1139.86 136.583 1138.86 138.604C1133.37 139.712 1126.47 138.912 1120.82 138.897C1120.01 135.465 1118.88 132.633 1116.13 130.282C1112.78 127.416 1108.33 126.171 1103.96 126.51C1100.1 126.81 1095.89 128.432 1093.36 131.468C1092.13 132.944 1091.33 134.69 1091.56 136.655C1092.89 148.132 1123.54 145.734 1134.63 154.79C1139.39 158.669 1141.51 164.28 1142.11 170.245C1142.79 177.083 1141.25 183.383 1136.82 188.731C1129.81 197.181 1119.39 199.731 1108.97 200.733C1099.58 200.983 1088.57 199.677 1080.75 194.059C1073.17 188.609 1071.2 181.029 1069.81 172.335C1076.49 172.153 1083.18 172.022 1089.86 171.942C1091.03 174.989 1092.05 177.456 1094.68 179.569C1099.3 183.295 1105.36 184.52 1111.17 183.823C1114.44 183.432 1117.91 182.362 1120.01 179.668C1121.63 177.579 1122.24 174.52 1121.86 171.922C1120.68 164.018 1099.43 162.367 1092.92 160.595C1088.07 159.274 1083.15 157.439 1079.06 154.45C1074.75 151.301 1071.94 147.024 1071.13 141.715C1070.18 135.497 1071.8 127.924 1075.61 122.848C1081.75 114.681 1091.23 112.334 1100.74 110.927Z"/><path fill="#062540" d="M756.428 111.971C764.779 112.714 773.318 112.304 781.69 112.19C787.166 121.449 792.46 130.814 797.569 140.28C802.797 130.869 808.324 121.598 813.701 112.269C821.785 112.519 829.871 112.246 837.953 112.054C829.822 126.602 820.266 140.728 811.235 154.754C820.997 169.153 830.519 183.713 839.798 198.427L839.236 199.406C831.371 199.2 823.453 199.385 815.583 199.383C809.629 189.326 803.442 179.394 797.366 169.409C792.26 179.617 786.351 189.537 780.499 199.336C772.034 199.272 763.568 199.295 755.103 199.404C763.754 184.547 773.422 169.402 783.328 155.358C781.185 149.813 777.274 144.604 774.046 139.636C768.098 130.483 761.87 121.437 756.428 111.971Z"/><path fill="#062540" d="M625.976 90.4991L647.939 90.4871C647.094 97.6084 647.737 105.321 647.549 112.525C654.511 112.493 661.47 112.517 668.42 112.056C668.23 117.752 668.407 123.465 668.498 129.162L647.632 129.1C648.136 141.914 646.125 161.273 648.111 172.896C648.571 175.587 649.58 178.964 651.958 180.585C655.94 183.299 663.81 181.64 668.283 180.843C668.465 184.324 668.477 187.831 668.561 191.317L668.636 199.176C663.269 200.084 657.623 200.556 652.18 200.552C645.143 200.548 637.283 199.405 632.12 194.177C629.355 191.377 627.746 187.795 626.894 183.992C625.181 176.341 625.847 167.84 625.87 160.029L625.983 129.112L611.384 129.106L611.555 112.019C616.286 112.518 621.23 112.36 625.993 112.469L625.976 90.4991Z"/><path fill="#062540" d="M857.08 90.3839C864.071 90.6665 871.076 90.5175 878.071 90.451C877.981 97.7932 878.039 105.136 878.245 112.476C884.837 112.482 891.467 112.637 898.029 111.917L898.196 129.536C891.615 128.815 884.801 129.174 878.184 129.198C878.392 141.827 876.512 161.649 878.593 173.267C879.02 175.653 879.822 178.799 881.947 180.246C886.526 183.364 893.067 181.884 898.121 180.884L898.135 193.769C898.246 195.507 898.314 196.988 897.855 198.691C894.012 201.026 885.753 200.401 881.353 200.247C874.49 200.006 867.47 198.639 862.606 193.351C860.11 190.638 858.59 187.188 857.84 183.605C855.666 173.222 856.744 141.233 857.186 129.203L843.716 129.173C843.879 123.536 843.919 117.897 843.837 112.259C848.219 112.583 852.75 112.315 857.148 112.268L857.08 90.3839Z"/><path fill="#127DEF" d="M329.046 225.89C336.084 225.843 345.247 224.827 351.728 227.737C355.806 229.568 357.542 232.288 359.109 236.34L359.117 225.96C364.216 225.892 369.386 225.708 374.479 225.997C379.164 226.263 384.645 227.259 387.884 230.96C390.011 233.39 390.866 236.784 390.614 239.963C390.261 244.434 387.599 247.457 384.345 250.275C387.787 255.127 390.431 260.797 393.275 266.026L381.048 266.125L378.842 261.595C377.794 259.332 376.669 256.167 374.93 254.394C373.871 253.315 373.327 252.927 371.804 252.906C371.659 253.042 371.613 253.078 371.491 253.214C369.059 255.905 369.994 262.586 370.086 266.069L359.116 266.15L359.096 244.289C357.982 246.383 356.85 248.337 355.091 249.962C350.524 254.181 344.804 254.144 338.991 253.873L339.011 266.079L329.092 266.153C328.878 252.744 329.055 239.302 329.046 225.89ZM346.789 243.943C347.692 241.984 348.165 240.669 347.918 238.495C347.119 237.093 346.396 236.179 344.758 235.737C342.95 235.249 340.866 235.226 339.002 235.11C338.918 237.791 338.324 241.522 339.655 243.92C341.715 245.133 343.182 244.892 345.468 244.3C345.91 244.187 346.35 244.068 346.789 243.943ZM378.3 242.665C379.102 240.909 379.491 239.875 379.057 237.934C377.568 236.121 376.561 235.643 374.218 235.41C372.83 235.281 371.439 235.176 370.048 235.095C369.999 237.572 369.511 240.975 370.771 243.173C372.022 244.057 372.548 244.319 374.137 244.044C375.524 243.804 376.98 243.158 378.3 242.665Z"/><path fill="#39B9C6" d="M1038.59 112.258C1045.35 112.767 1052.45 112.498 1059.21 112.049C1058.53 141.183 1059.4 170.426 1059.12 199.579C1052.17 199.205 1045.16 199.432 1038.2 199.466L1038.16 138.584C1038.15 132.01 1036.97 118.072 1038.59 112.258Z"/><path fill="#127DEF" d="M467.033 225.969L494.415 225.851L494.303 235.529C490.142 235.609 485.609 234.774 481.519 235.437C479.735 235.727 478.932 236.27 477.899 237.705C477.947 238.684 477.779 239.317 478.549 240.022C480.908 242.18 489.322 241.045 492.439 240.985L492.444 250.64C488.641 250.462 481.5 249.302 478.127 251.209C478.038 251.653 477.957 252.103 477.929 252.555C477.841 253.947 477.878 255.296 478.795 256.337C483.804 257.36 489.981 256.495 495.152 256.588C494.998 259.762 494.869 262.918 494.887 266.097C485.624 265.999 476.35 266.112 467.086 266.136L467.002 244.685C465.819 246.756 464.589 248.644 462.779 250.228C458.251 254.189 452.681 254.193 447.034 253.835L447.1 266.075L436.179 266.139C435.856 252.761 436.123 239.309 436.127 225.923C443.077 225.861 451.954 224.822 458.492 227.24C463.163 228.968 465.211 231.777 467.208 236.12C466.957 232.762 467.06 229.337 467.033 225.969ZM455.161 243.486C455.834 241.57 456.336 240.211 455.816 238.182C454.781 236.765 454.03 235.901 452.212 235.593C450.509 235.305 448.762 235.279 447.047 235.089C446.988 237.824 446.449 241.511 447.812 243.956C449.076 244.843 449.717 245.129 451.321 244.823C452.609 244.578 454.029 244.152 455.161 243.486Z"/><path fill="#127DEF" d="M409.855 223.821C421.739 222.146 432.755 230.354 434.548 242.22C436.341 254.087 428.242 265.183 416.394 267.094C404.378 269.032 393.089 260.794 391.27 248.76C389.452 236.725 397.802 225.519 409.855 223.821ZM414.115 256.625C417.662 255.261 420.17 253.763 421.763 250.164C423.038 247.282 423.248 244.019 422.067 241.068C420.982 238.426 418.887 236.328 416.247 235.238C415.159 234.792 413.933 234.602 412.774 234.418C409.275 235.135 406.796 236.256 404.746 239.309C403.074 241.852 402.492 244.958 403.13 247.934C403.729 250.779 405.423 253.275 407.847 254.882C409.747 256.119 411.891 256.514 414.115 256.625Z"/><path fill="#127DEF" d="M586.522 225.919C590.602 225.874 594.69 225.961 598.77 225.993C589.903 244.209 584.401 243.82 584.931 266.064L574.954 266.098L574.029 266.136C572.539 264.966 573.277 257.778 573.221 255.466C573.01 246.904 565.522 237.538 561.464 230.063L560.974 230.401C560.975 232.255 560.925 234.076 560.768 235.924C557.736 236.934 553.501 236.296 550.309 236.206C550.744 246.108 550.489 256.126 550.538 266.043L538.403 266.123L538.414 236.211L528.109 236.187C527.835 232.796 527.648 229.399 527.548 225.999C542.32 225.655 557.187 225.808 571.965 225.964C574.519 230.809 576.961 235.655 579.236 240.64C581.579 235.691 584.008 230.783 586.522 225.919Z"/><path fill="#127DEF" d="M876.255 225.964L887.862 225.886C887.544 239.264 887.77 252.677 887.799 266.059L876.511 266.074L876.498 258.634C876.379 253.59 876.588 248.541 876.74 243.499L869.849 257.812C867.242 257.807 864.627 257.899 862.02 257.946C859.496 253.265 857.308 248.419 855.075 243.596C854.902 251.078 855.054 258.585 855.1 266.07L844.23 266.112C843.618 252.789 844.118 239.28 843.982 225.93C847.888 225.842 851.817 225.958 855.724 225.991C859.519 232.504 863.067 239.581 865.946 246.547C869.197 239.61 872.4 232.588 876.255 225.964Z"/><path fill="#127DEF" d="M1204.22 225.966C1208.1 225.815 1212.01 225.93 1215.89 225.958C1215.68 239.323 1215.65 252.69 1215.79 266.056C1212.57 266.136 1207.71 266.883 1204.8 265.613L1204.49 263.834C1204.47 257.118 1204.53 250.403 1204.69 243.689L1197.85 257.807C1195.23 257.81 1192.61 257.902 1189.99 257.952C1187.51 253.335 1185.36 248.493 1183.1 243.76C1182.94 251.184 1183.1 258.646 1183.1 266.075L1172.17 266.134C1171.97 252.73 1172.14 239.294 1172.13 225.887L1183.69 225.984C1187.58 232.45 1190.97 239.617 1193.97 246.534C1197.23 239.589 1200.43 232.642 1204.22 225.966Z"/><path fill="#127DEF" d="M814.472 248.222C814.468 249.531 814.374 250.908 814.141 252.196C813.328 256.688 810.317 260.956 806.563 263.48C801.501 266.884 794.866 267.655 788.975 266.462C783.516 265.358 778.416 262.217 775.357 257.509C772 252.343 771.28 246.012 772.612 240.062C773.721 235.108 776.649 230.313 781.002 227.579C786.235 224.291 793.517 223.138 799.514 224.535C805.962 226.037 810.165 230.077 813.548 235.523C809.75 236.827 805.814 237.723 801.922 238.702C801.426 238.157 800.91 237.63 800.375 237.122C798.458 235.318 796.056 234.275 793.395 234.381C790.792 234.486 788.438 235.658 786.705 237.589C784.731 239.788 783.8 242.864 783.993 245.792C784.184 248.697 785.457 252.306 787.713 254.246C789.702 255.956 792.335 256.553 794.904 256.331C797.435 256.113 799.963 255.355 801.635 253.35L801.496 251.992C799.699 250.682 796.598 251.237 794.45 251.342L794.364 242.074C801.079 241.996 807.814 241.808 814.521 242.215C814.392 243.99 813.905 246.553 814.472 248.222Z"/><path fill="#127DEF" d="M918.931 225.544C922.156 225.807 925.339 225.955 928.575 225.972C934.817 232.234 939.805 241.531 944.734 248.916L944.489 225.976C948.088 225.908 952.328 225.423 955.807 226.322C955.64 234.006 954.624 260.133 956.19 266.06L946 266.097C940.378 258.575 934.982 250.622 930.059 242.624C929.921 250.434 930.029 258.266 930.018 266.078L919.066 266.114C918.848 256.866 919.282 247.607 918.876 238.359C919.085 234.102 918.958 229.806 918.931 225.544Z"/><path fill="#127DEF" d="M496 225.918C505.067 225.836 517.86 224.34 524.928 231.186C526.795 232.995 527.957 235.436 527.964 238.058C527.978 243.101 524.793 247.101 521.6 250.642C524.777 255.579 527.493 260.833 530.238 266.019L518.335 266.155C516.349 262.502 513.333 254.418 509.556 252.855C508.513 253.229 508.338 253.282 507.843 254.324C506.263 257.648 507.001 262.455 507.107 266.047C503.545 266.075 499.396 265.748 495.917 266.443C497.201 258.341 496.423 235.193 496 225.918ZM515.257 242.659C516.076 240.954 516.532 239.933 516.105 238.01C514.947 236.507 514.133 235.807 512.184 235.551C510.477 235.326 508.749 235.286 507.038 235.096C506.995 237.591 506.521 240.985 507.796 243.197C509.069 244.08 509.594 244.323 511.196 244.034C512.551 243.789 513.969 243.151 515.257 242.659Z"/><path fill="#127DEF" d="M917.541 225.477C917.371 228.734 916.929 232.216 917.706 235.413C913.953 235.687 910.148 235.356 906.384 235.326C904.702 235.313 902.33 235.18 901.114 236.378C901.171 238.222 900.935 238.981 902.168 240.425C905.791 241.965 911.46 241.069 915.387 240.987L915.355 250.634C912.08 250.483 903.53 249.302 901.149 251.384C901.115 252.976 900.849 254.87 901.666 256.293C906.157 257.549 913.125 256.552 917.912 256.514L917.812 266.098C908.595 265.98 899.361 266.108 890.142 266.119L890.078 225.956C899.032 225.967 908.679 226.66 917.541 225.477Z"/><path fill="#127DEF" d="M1139.12 225.9C1148.25 225.821 1157.38 225.857 1166.52 226.009L1166.41 235.573C1162.8 235.468 1159.19 235.39 1155.57 235.339C1153.86 235.324 1151.36 235.148 1150.12 236.371C1150.17 238.219 1149.94 238.977 1151.18 240.422C1154.82 241.967 1160.5 241.07 1164.44 240.987L1164.39 250.625C1159.62 250.387 1154.84 250.398 1150.07 250.355C1149.98 252.03 1149.64 253.953 1150.57 255.434C1154.16 258.098 1162.48 256.5 1166.86 256.422L1166.87 266.078L1139.15 266.144L1139.12 225.9Z"/><path fill="#127DEF" d="M814.999 225.94L842.472 225.876L842.361 235.531C838.803 235.459 829.35 234.133 826.655 236.671C825.953 237.332 826.01 237.94 825.851 238.858C826.717 240.241 827.252 240.597 828.856 240.98C832.376 241.82 836.797 240.895 840.446 240.991L840.442 250.648C836.244 250.409 829.557 249.084 826.196 251.786C825.941 253.32 825.898 254.424 826.244 255.967C830.421 257.97 838.317 256.311 843.017 256.541L842.975 266.092L815.343 266.114C816.443 260.777 816.047 247.53 814.896 242.226C814.996 236.798 815.03 231.369 814.999 225.94Z"/><path fill="#127DEF" d="M1079.65 225.215C1081.69 225.065 1084.18 224.954 1086.19 225.308C1090.24 226.019 1095.72 229.431 1098.02 232.746C1098.29 234.256 1098.26 234.353 1097.54 235.713C1095.62 237.353 1090.39 237.532 1087.82 237.926C1086.85 236.686 1085.75 235.102 1084.18 234.614C1082.53 234.101 1081.6 234.672 1080.22 235.442C1079.5 236.956 1079.4 237.084 1079.75 238.713C1081.86 241.274 1088.89 241.487 1092.03 243.157C1094.86 244.666 1097.52 247.568 1098.43 250.675C1099.27 253.543 1098.7 256.598 1097.26 259.171C1094.69 263.759 1091.09 265.49 1086.27 266.864C1082.77 266.941 1079.27 267.096 1075.91 265.918C1070.75 264.108 1068.49 260.17 1066.23 255.537C1069.81 255.118 1073.38 254.388 1076.92 253.765C1078.26 255.277 1079.61 256.873 1081.69 257.243C1083.19 257.51 1085.67 257.635 1086.93 256.686C1087.28 256.43 1087.25 255.577 1087.3 255.143C1084.63 249.382 1078.16 250.756 1073.36 248.075C1070.65 246.561 1068.95 244.131 1068.13 241.168C1067.29 238.142 1067.61 235.048 1069.21 232.322C1071.59 228.261 1075.26 226.389 1079.65 225.215Z"/><path fill="#127DEF" d="M1009.1 225.249C1011.2 225.072 1013.74 224.936 1015.82 225.271C1019.96 225.936 1025.47 229.184 1027.92 232.499C1028.25 234.093 1028.26 234.237 1027.57 235.704C1025.77 237.273 1020.31 237.58 1017.83 237.992C1016.78 236.603 1015.69 234.987 1013.89 234.553C1012.47 234.209 1011.42 234.585 1010.23 235.347C1009.38 236.848 1009.35 236.887 1009.69 238.576C1011.92 241.351 1018.66 241.501 1021.97 243.195C1024.83 244.658 1027.51 247.411 1028.47 250.518C1029.34 253.353 1028.8 256.347 1027.4 258.917C1024.82 263.647 1021.3 265.385 1016.38 266.816C1012.54 267.01 1008.5 267.059 1004.9 265.528C1000.39 263.615 998.182 259.823 996.415 255.496C999.922 255.077 1003.43 254.395 1006.92 253.821C1007.62 254.65 1008.36 255.538 1009.22 256.207C1010.73 257.384 1013.43 257.566 1015.28 257.357C1016.47 257.222 1016.67 257.147 1017.39 256.244C1017.39 255.809 1017.35 255.392 1017.21 254.98C1015.68 250.692 1007.85 249.828 1004 247.996C1001.46 246.789 998.783 244.853 997.834 242.087C996.793 239.054 997.888 235.589 999.224 232.827C1001.42 228.294 1004.5 226.825 1009.1 225.249Z"/><path fill="#127DEF" d="M1029.31 226.055C1033.14 225.832 1037.02 225.926 1040.86 225.894C1043.74 230.442 1046.1 235.849 1048.25 240.776C1050.55 235.761 1052.97 230.809 1055.53 225.924C1059.57 225.848 1063.63 225.956 1067.67 225.982C1065.29 231.706 1061.55 237.295 1058.5 242.717C1053.57 250.955 1053.74 256.805 1054 266.062L1042.15 266.138C1042.41 241.996 1037.02 245.633 1028.82 226.859L1029.31 226.055Z"/><path fill="#127DEF" d="M956.945 226.264C967.577 224.922 979.248 225.864 989.966 225.935L989.922 236.373L979.377 236.196L979.502 266.043L967.353 266.126L967.371 236.2L956.652 236.206C957.175 232.969 956.955 229.538 956.945 226.264Z"/><path fill="#127DEF" d="M1100.54 225.943L1133.95 225.923L1133.82 236.392L1123.3 236.182L1123.37 256.845L1123.44 266.042L1111.47 266.111C1111 256.221 1111.39 246.123 1111.52 236.214C1107.91 236.204 1104.3 236.374 1100.7 236.496L1100.54 225.943Z"/><path fill="#39B9C6" d="M1047.15 79.0995C1050.22 79.1142 1053.35 79.5191 1055.95 81.2438C1058.74 83.0594 1060.67 85.9334 1061.29 89.2023C1061.86 92.2135 1061.2 95.3257 1059.46 97.85C1057.1 101.228 1053.92 102.477 1050.01 103.2C1046.78 103.142 1043.42 102.961 1040.65 101.114C1038 99.3512 1036.12 96.7042 1035.52 93.5652C1034.95 90.5078 1035.63 87.3497 1037.39 84.7913C1039.82 81.3416 1043.11 79.8064 1047.15 79.0995Z"/><path fill="#062540" fill-opacity="0.24313726" d="M495.152 256.588C496.853 251.184 493.685 228.575 496 225.918C496.423 235.193 497.201 258.341 495.917 266.443L494.887 266.097C494.869 262.918 494.998 259.762 495.152 256.588Z"/><path fill="#127DEF" fill-opacity="0.16470589" d="M955.807 226.322L956.945 226.264C956.955 229.538 957.175 232.969 956.652 236.206C955.814 244.607 957.916 258.871 956.19 266.06C954.624 260.133 955.64 234.006 955.807 226.322Z"/><path fill="#062540" fill-opacity="0.086274512" d="M917.541 225.477C917.878 225.482 918.651 225.411 918.931 225.544C918.958 229.806 919.085 234.102 918.876 238.359C918.458 237.053 918.326 235.591 918.106 234.236L917.706 235.413C916.929 232.216 917.371 228.734 917.541 225.477Z"/><path fill="#127DEF" fill-opacity="0.85490197" d="M814.521 242.215L814.896 242.226C816.047 247.53 816.443 260.777 815.343 266.114C814.052 260.388 815.44 254.107 814.472 248.222C813.905 246.553 814.392 243.99 814.521 242.215Z"/></svg>