<?xml version="1.0" encoding="utf-8" ?><svg xmlns="http://www.w3.org/2000/svg" xmlns:xlink="http://www.w3.org/1999/xlink" width="1228" height="287" viewBox="0 0 1228 287"><defs><linearGradient id="gradient_0" gradientUnits="userSpaceOnUse" x1="182.66954" y1="138.53236" x2="11.46786" y2="146.87999"><stop offset="0" stop-color="#2676E9"/><stop offset="1" stop-color="#8E68F3"/></linearGradient></defs><path fill="url(#gradient_0)" d="M213.483 242.851C200.904 244.365 187.217 243.132 174.522 243.081L102.723 243.061C92.7013 243.03 73.8329 241.343 65.1204 244.788C51.2403 250.274 40.265 264.546 29.9832 274.912C27.3117 277.606 23.7906 281.677 20.2034 283.092C19.2628 283.463 19.0709 283.253 18.1891 282.88C16.9928 281.108 16.9953 278.541 16.9354 276.457C15.9173 241.039 17.0432 205.345 16.9716 169.891L16.792 100.204C16.7279 91.365 16.0049 82.5702 16.1664 73.7152C16.505 55.1553 21.1237 37.9675 34.8667 24.7716C42.8684 17.0883 52.3616 12.0074 63.1625 9.49622C71.987 7.44454 80.8084 7.76169 89.7899 7.59156C100.635 7.29228 111.483 7.15864 122.332 7.19066C150.078 7.08201 177.729 6.63204 205.475 7.19664C219.765 6.56492 231.615 7.24462 242.649 17.3294C249.749 23.819 255.529 33.3506 255.94 43.1107C256.378 53.5094 256.06 64.0441 256.065 74.4565L256.077 132.353L256.063 171.745C256.056 182.333 256.684 193.219 254.562 203.65C253.008 211.284 248.039 220.408 242.73 226.155C235.909 233.539 229.342 238.194 219.771 241.235C217.926 241.821 215.652 242.748 213.722 242.843C213.643 242.847 213.563 242.848 213.483 242.851Z"/><path fill="#FBFAF8" d="M84.0398 191.065C85.3049 182.214 86.9835 173.156 86.5101 164.197C85.2506 140.362 68.1513 126.845 66.0368 101.797C64.4071 82.591 70.4174 63.5175 82.7652 48.71C93.7447 35.5952 109.585 27.5005 126.653 26.2827C148.869 24.5011 169.099 31.7488 185.946 46.0805C199.015 59.9005 206.693 73.267 208.012 92.5825C208.406 98.3539 207.945 104.675 209.684 110.225C212.271 118.474 220.898 132.605 220.73 140.538C220.695 142.177 219.858 143.903 218.67 145.029C215.268 148.254 209.363 147.494 205.049 147.367C205.024 157.762 205.366 168.185 200.977 177.85C198.947 179.024 197.378 180.683 195.158 181.572C186.171 185.17 168.747 183.354 158.825 183.226C158.46 152.735 159.603 122.223 160.131 91.7403C164.273 89.2259 167.991 86.8905 170.465 82.5373C172.417 79.1513 172.904 75.1172 171.816 71.3641C170.568 67.0294 167.369 63.2743 163.41 61.1561C159.374 59.0038 154.639 58.5709 150.28 59.9553C146.557 61.116 143.508 63.4562 141.697 66.9365C139.688 70.7982 139.103 76.2308 140.45 80.3866C142.273 86.0137 146.805 88.9938 151.783 91.5595C152.9 101.804 152.353 112.514 152.396 122.827C152.525 142.667 152.38 162.508 151.963 182.344C152.333 182.932 152.695 183.526 153.047 184.126C156.172 189.486 156.462 211.401 154.805 217.495C154.63 218.14 154.15 218.253 153.601 218.57C153.119 218.402 139.51 205.925 136.563 203.906L136.579 147.554C139.006 145.773 141.506 143.982 143.23 141.468C145.283 138.473 146.446 135.014 145.738 131.378C145.075 127.977 142.9 125.122 140.04 123.233C136.698 121.034 132.605 120.286 128.701 121.163C125.478 121.862 122.483 123.645 120.709 126.473C118.705 129.666 118.138 134.206 119.03 137.847C120.18 142.541 123.852 145.02 127.716 147.39L127.702 199.048C122.225 196.773 116.678 194.672 111.068 192.749C110.283 163.888 110.779 134.801 110.97 105.92C114.52 103.816 117.549 101.858 119.882 98.3239C122.166 94.8643 123.034 90.8162 122.179 86.7421C121.252 82.3208 118.382 78.4315 114.591 76.0189C110.861 73.6103 106.316 72.8084 101.986 73.795C98.1716 74.6585 94.8441 76.8821 92.7577 80.2074C90.3513 84.0429 89.2035 89.435 90.28 93.876C91.7217 99.8236 96.5031 103.125 101.423 106.091C102.485 118.544 101.886 131.424 101.892 143.929C101.899 159.507 102.341 175.251 101.613 190.809C95.7179 190.465 89.9242 190.622 84.0398 191.065Z"/><path fill="#1479EA" d="M205.475 7.19664C219.765 6.56492 231.615 7.24462 242.649 17.3294C249.749 23.819 255.529 33.3506 255.94 43.1107C256.378 53.5094 256.06 64.0441 256.065 74.4565L256.077 132.353L256.063 171.745C256.056 182.333 256.684 193.219 254.562 203.65C253.008 211.284 248.039 220.408 242.73 226.155C235.909 233.539 229.342 238.194 219.771 241.235C217.926 241.821 215.652 242.748 213.722 242.843C213.643 242.847 213.563 242.848 213.483 242.851C208.667 239.712 195.635 242.91 189.333 242.153C183.862 241.495 181.084 239.087 177.829 234.956C177.643 226.24 177.706 217.611 177.693 208.877C177.683 202.738 177.259 196.15 178.283 190.086C180.183 178.828 190.986 186.899 198.055 181.793C199.449 180.786 200.685 179.608 200.977 177.85C205.366 168.185 205.024 157.762 205.049 147.367C209.363 147.494 215.268 148.254 218.67 145.029C219.858 143.903 220.695 142.177 220.73 140.538C220.898 132.605 212.271 118.474 209.684 110.225C207.945 104.675 208.406 98.3539 208.012 92.5825C206.693 73.267 199.015 59.9005 185.946 46.0805L186.275 45.0849C182.694 39.1593 174.172 37.723 169.558 32.9943C168.513 31.9241 170.363 31.1309 170.389 29.8794L170.649 13.0626C178.958 2.69934 194.684 11.6031 205.31 7.26678C205.365 7.24412 205.42 7.22002 205.475 7.19664Z"/><path fill="#FBFAF8" d="M153.467 68.5947C155.828 67.6646 158.509 68.0995 160.454 69.7282C162.399 71.3569 163.297 73.9184 162.794 76.4041C162.291 78.8897 160.467 80.9011 158.041 81.6463C154.485 82.7387 150.701 80.828 149.471 77.3194C148.241 73.8108 150.006 69.9582 153.467 68.5947Z"/><path fill="#FBFAF8" d="M105.02 83.0658C108.588 82.4854 111.974 84.8348 112.677 88.3779C113.38 91.9211 111.146 95.3832 107.626 96.2062C105.24 96.7642 102.739 95.977 101.103 94.153C99.4674 92.329 98.9577 89.7588 99.7737 87.4494C100.59 85.14 102.601 83.4592 105.02 83.0658Z"/><path fill="#FBFAF8" d="M130.94 129.078C133.588 128.452 136.267 129.984 137.07 132.581C137.873 135.178 136.525 137.953 133.986 138.929C132.184 139.621 130.146 139.253 128.701 137.974C127.256 136.694 126.644 134.717 127.115 132.845C127.586 130.974 129.061 129.521 130.94 129.078Z"/><path fill="#062540" d="M450.022 106.497C474.496 102.941 497.266 119.753 501.054 144.174C504.842 168.595 488.232 191.505 463.829 195.519C439.101 199.586 415.8 182.718 411.962 157.971C408.124 133.224 425.222 110.1 450.022 106.497ZM461.519 176.731C467.615 174.597 471.855 171.311 474.733 165.339C478.451 157.625 478.853 147.281 475.991 139.226C474.046 133.755 470.405 129.077 465.078 126.583C460.955 124.653 456.78 124.613 452.344 124.747C446.454 126.239 441.894 129.377 438.77 134.67C434.399 142.074 433.758 152.485 435.94 160.692C437.456 166.392 440.711 171.484 445.909 174.463C450.866 177.303 456.031 177.244 461.519 176.731Z"/><path fill="#062540" d="M354.519 74.5543C354.573 74.5463 354.627 74.5373 354.68 74.5302C366.305 72.9976 380.805 77.5543 390.095 84.4532C400.818 92.4161 406.397 103.859 408.322 116.894C400.826 116.87 393.319 116.761 385.827 117.04C383.35 110.621 380.36 104.794 374.511 100.774C367.385 95.8755 357.421 94.6018 349.042 96.2144C341.114 97.6938 334.129 102.334 329.695 109.066C322.599 119.612 321.293 135.737 323.708 147.922C325.544 157.185 330.124 166.019 338.143 171.357C346.041 176.615 356.207 177.56 365.359 175.723C372.841 174.221 378.109 170.132 382.245 163.895C383.281 161.56 383.848 158.821 384.568 156.362C392.425 156.35 400.281 156.443 408.135 156.641C405.757 165.104 403.21 173.146 397.375 179.945C388.91 189.809 376.253 194.967 363.491 195.949C347.064 197.212 330.471 194.133 317.713 183.137C305.971 173.015 299.976 158.392 298.892 143.151C297.607 125.083 302.289 106.871 314.32 93.0191C325.182 80.5129 338.329 75.7198 354.519 74.5543Z"/><defs><linearGradient id="gradient_1" gradientUnits="userSpaceOnUse" x1="1018.1937" y1="137.67137" x2="897.76221" y2="157.24385"><stop offset="0" stop-color="#37BCC6"/><stop offset="1" stop-color="#34A6D1"/></linearGradient></defs><path fill="url(#gradient_1)" d="M995.357 107.213L1015.87 107.23L1008.56 129.173C1002.03 151.131 994.519 172.91 987.561 194.748C981.031 194.323 974.443 194.435 967.902 194.475C963.031 174.823 956.676 155.543 951.546 135.948C950.683 142.265 948.59 148.652 946.836 154.775C943.043 168.024 938.63 181.177 935.315 194.549C928.971 194.055 922.342 194.341 915.963 194.284L899.459 141.435C895.852 130.057 891.775 118.74 888.621 107.232L909.148 107.217L926.421 166.911C931.153 146.851 938.372 127.302 943.301 107.257L960.829 107.242C966.286 127.242 972.785 146.954 978.088 167C982.583 146.875 990.157 127.214 995.357 107.213Z"/><path fill="#062540" d="M695.817 106.216C697.707 106.089 699.6 106.022 701.494 106.013C711.855 106.033 722.115 109.333 729.513 116.804C740.551 127.951 741.199 142.283 741.142 157.037C721.252 156.553 701.282 156.934 681.383 156.952C681.689 159.178 682.095 161.466 682.739 163.621C684.345 168.992 688.204 173.876 693.196 176.465C697.926 178.908 703.43 179.386 708.511 177.795C713.798 176.094 716.897 172.578 719.371 167.839L734.273 167.903C736.361 168.076 738.543 167.925 740.64 167.896C739.367 172.788 737.375 177.582 734.394 181.686C728.613 189.642 719.527 194.121 709.957 195.606C698.397 197.399 685.92 195.179 676.388 188.206C667.317 181.571 661.916 171.506 660.214 160.515C658.142 147.138 660.334 132.723 668.485 121.655C675.401 112.263 684.501 107.918 695.817 106.216ZM681.83 142.005L703.192 141.9C707.887 141.937 715.085 142.945 719.461 141.594C720.387 139.991 720.771 138.947 720.281 137.092C718.933 131.992 714.747 126.92 710.198 124.333C706.443 122.198 702.499 121.916 698.27 122.287C692.306 124.208 687.528 126.588 684.527 132.439C683.011 135.396 682.179 138.712 681.83 142.005Z"/><path fill="#39B9C6" d="M1169.31 106.255C1171.32 106.128 1173.35 106.009 1175.37 106.052C1186.16 106.282 1195.85 109.842 1203.4 117.717C1213.81 128.579 1214.49 142.825 1214.18 157.03C1194.47 156.285 1174.44 156.827 1154.72 157.027C1154.97 158.915 1155.32 160.79 1155.76 162.645C1157.09 168.072 1160.33 173.142 1165.19 176.042C1169.75 178.76 1175.6 179.3 1180.69 177.964C1186.89 176.335 1190.32 172.432 1193.38 167.133L1205.57 167.509L1212.75 167.698C1211.65 172.664 1209.53 177.349 1206.53 181.459C1200.95 189.045 1192.73 193.814 1183.46 195.218C1171.95 196.962 1159.4 195.223 1149.87 188.177C1140.78 181.454 1135.2 171.136 1133.57 160.031C1131.69 147.191 1133.94 131.898 1141.85 121.309C1148.69 112.155 1158.25 107.856 1169.31 106.255ZM1154.85 142.121L1175.11 141.891C1181.31 141.9 1187.53 141.989 1193.73 141.846C1192.47 135.408 1190.7 128.964 1184.91 125.074C1181.76 122.956 1177.87 121.981 1174.1 121.93C1168.65 122.564 1163.88 124.204 1160.34 128.63C1157.14 132.623 1156.01 137.27 1154.85 142.121Z"/><path fill="#062540" d="M552.95 106.198C554.515 106.088 556.083 106.03 557.652 106.022C565.779 106.032 573.421 108.125 579.321 114.06C583.307 118.07 585.998 123.157 587.395 128.612C590.022 138.867 588.992 150.425 588.967 160.965L588.941 194.223L567.81 194.313C567.861 193.887 567.904 193.461 567.94 193.033C568.617 184.751 568.169 176.086 568.166 167.776C568.163 158.783 569.025 148.673 567.293 139.823C566.584 136.197 565.209 132.611 562.774 129.782C560.352 126.968 557.238 125.336 553.526 125.065C547.089 124.594 541.919 126.165 537.019 130.406C534.62 133.352 533.281 137.062 532.597 140.759C531.414 147.152 531.843 153.851 531.876 160.329C531.934 171.584 532.282 182.906 531.987 194.154C524.555 194.188 517.104 194.117 509.678 194.457C510.656 184.534 509.92 173.851 509.914 163.853L509.784 107.273C516.794 107.327 523.804 107.281 530.813 107.134C530.78 112.11 530.682 117.085 530.519 122.059C531.375 120.618 532.244 119.174 533.195 117.793C538.171 110.568 544.575 107.708 552.95 106.198Z"/><path fill="#39B9C6" d="M1083.57 106.253C1089.38 104.817 1098.45 106.072 1104.14 107.842C1111.52 110.144 1117.86 114.668 1121.5 121.647C1123.16 124.845 1125.05 129.781 1123.89 133.406C1120.14 134.894 1110.38 133.917 1105.87 133.914C1104.94 130.458 1104.02 127.766 1101.2 125.337C1097.82 122.413 1093.23 121.164 1088.81 121.516C1085.07 121.814 1080.93 123.302 1078.45 126.241C1077.21 127.708 1076.48 129.549 1076.67 131.483C1077.8 143.249 1108.6 140.701 1119.59 149.766C1124.4 153.728 1126.59 159.567 1127.17 165.629C1127.86 172.836 1125.92 178.738 1121.33 184.246C1115.92 190.738 1106.31 194.51 1098.01 195.272C1096.98 195.425 1095.95 195.541 1094.91 195.62C1084.68 196.384 1071.96 194.548 1063.96 187.616C1057.78 182.258 1055.62 175.052 1055.06 167.206C1061.65 167.129 1068.23 167.107 1074.81 167.141C1076.18 170.483 1077.63 173.251 1080.58 175.477C1084.76 178.637 1090.76 179.593 1095.86 178.862C1099.07 178.402 1103.78 176.287 1105.72 173.629C1106.94 171.947 1107.36 169.673 1107.01 167.638C1105.48 158.631 1086.01 157.719 1078.6 155.791C1073.64 154.499 1068.61 152.679 1064.4 149.683C1060.01 146.558 1057.04 142.285 1056.15 136.924C1055.14 130.796 1056.72 123.201 1060.42 118.136C1065.96 110.544 1074.7 107.647 1083.57 106.253Z"/><path fill="#062540" d="M741.452 107.115C749.842 107.433 758.27 107.253 766.665 107.214C772.143 116.454 777.444 125.797 782.566 135.239L798.725 107.248C806.754 107.423 814.821 107.224 822.853 107.18C814.926 121.633 805.274 135.942 796.216 149.726C804.983 162.683 813.583 175.753 822.012 188.932C822.87 190.295 824.883 192.76 824.532 194.295L823.554 194.301C815.89 194.155 808.198 194.297 800.531 194.301C794.55 184.32 788.491 174.386 782.354 164.5C777.207 174.617 771.369 184.474 765.576 194.235L740.129 194.267C749.42 179.648 758.287 164.466 768.332 150.371C766.088 144.544 761.892 139.014 758.496 133.794C752.742 124.949 746.861 116.178 741.452 107.115Z"/><path fill="#062540" d="M632.058 85.533L632.482 85.7872C633.767 92.1599 632.659 100.834 632.612 107.45C639.538 107.205 646.508 107.275 653.44 107.19L653.491 124.17C646.541 123.986 639.554 124.1 632.6 124.072C632.924 136.519 631.201 156.128 633.003 167.561C633.419 170.199 634.282 173.638 636.6 175.275C640.934 178.336 648.531 176.694 653.401 175.84C653.599 181.971 653.533 188.137 653.592 194.272C649.273 194.825 644.972 195.155 640.626 195.416C639.269 195.452 637.912 195.471 636.555 195.473C629.743 195.469 622.241 194.442 617.231 189.366C614.309 186.406 612.701 182.476 611.858 178.46C610.347 171.26 610.946 163.347 610.952 156.009L611.018 124.086L596.517 124.077L596.584 107.184L611.008 107.355L611.013 85.5018C618.015 85.6692 625.052 85.5321 632.058 85.533Z"/><path fill="#062540" d="M842.04 85.2598C848.936 85.827 856.218 85.8913 863.113 85.289C862.985 92.6432 863.057 99.9994 863.328 107.35C869.891 107.4 876.454 107.324 883.014 107.122L883.23 124.541C876.822 123.719 869.784 124.17 863.302 124.183C863.201 134.487 861.267 165.39 864.907 172.962C868.409 180.249 877.459 174.775 882.678 176.641C883.72 180.067 883.19 184.687 883.166 188.288L883.263 193.984C878.112 195.197 872.392 195.533 867.115 195.389C860.144 195.199 852.982 194.005 847.994 188.664C845.382 185.867 843.774 182.349 842.935 178.643C840.484 167.801 841.659 136.566 842.149 124.213C837.68 124.053 833.174 124.167 828.701 124.17C828.909 118.535 828.962 112.895 828.861 107.256L842.144 107.237C841.888 99.9338 842.054 92.5705 842.04 85.2598Z"/><path fill="#39B9C6" d="M1023.16 107.232C1030.2 107.284 1037.24 107.27 1044.28 107.191C1043.94 116.32 1044.25 125.538 1044.23 134.679L1044.27 192.779C1044.24 193.512 1043.95 193.843 1043.49 194.372C1036.81 194.79 1029.94 194.337 1023.22 194.493C1022.75 181.953 1023.1 169.275 1023.09 156.719C1023.07 140.237 1022.8 123.709 1023.16 107.232Z"/><path fill="#39B9C6" d="M1029.5 74.3988C1032.28 74.1467 1035.35 73.9508 1038.02 74.8906C1041.27 76.0318 1044.1 78.4066 1045.54 81.5427C1046.79 84.2485 1046.9 87.3428 1045.83 90.1258C1044.21 94.3562 1041.17 96.2421 1037.25 97.9997C1034.37 98.2371 1031.38 98.3802 1028.6 97.4712C1025.61 96.4966 1022.87 94.2753 1021.46 91.4576C1020.11 88.7717 1019.91 85.651 1020.9 82.8133C1022.38 78.6104 1025.63 76.2422 1029.5 74.3988Z"/></svg>